<?xml version="1.0" standalone="no"?>
<!DOCTYPE svg PUBLIC "-//W3C//DTD SVG 20010904//EN"
 "http://www.w3.org/TR/2001/REC-SVG-20010904/DTD/svg10.dtd">
<svg version="1.0" xmlns="http://www.w3.org/2000/svg"
 width="184.000000pt" height="184.000000pt" viewBox="0 0 184.000000 184.000000"
 preserveAspectRatio="xMidYMid meet">

<g transform="translate(0.000000,184.000000) scale(0.100000,-0.100000)"
fill="#000000" stroke="none">
<path d="M0 920 l0 -920 920 0 920 0 0 920 0 920 -920 0 -920 0 0 -920z m624
706 c120 -32 212 -33 316 -6 103 27 200 26 297 -4 43 -13 109 -27 146 -30 119
-11 262 -78 293 -137 9 -19 13 -51 10 -104 -3 -65 -9 -87 -42 -152 -35 -68
-82 -123 -104 -123 -5 0 -1 -15 9 -32 10 -18 29 -62 41 -98 33 -92 23 -149
-34 -206 -67 -68 -164 -79 -235 -26 -53 39 -95 54 -150 55 -155 1 -259 -148
-207 -296 34 -95 107 -146 209 -147 66 0 69 -7 32 -62 -40 -59 -119 -92 -235
-96 -52 -2 -115 1 -139 6 -35 9 -49 7 -67 -5 -17 -11 -35 -13 -66 -8 -123 21
-234 84 -301 170 -23 30 -49 55 -58 55 -21 0 -61 38 -93 88 -43 68 -68 158
-71 252 -1 47 -8 96 -14 109 -17 32 -15 152 4 219 41 139 146 279 260 343 l55
31 -19 32 c-24 37 -36 104 -27 141 9 37 44 68 69 62 12 -3 66 -17 121 -31z"/>
<path d="M490 1589 c-14 -26 -12 -49 9 -95 23 -50 74 -84 127 -84 33 -1 36 -2
20 -11 -10 -6 -37 -9 -59 -6 -54 7 -134 -33 -215 -108 -110 -102 -172 -231
-171 -360 l0 -70 29 57 c37 71 54 83 30 20 -30 -78 -41 -182 -30 -264 11 -79
54 -180 92 -215 l23 -22 -2 72 -3 72 15 -54 c46 -163 173 -283 324 -307 l45
-7 -37 37 c-44 44 -49 66 -7 36 62 -44 138 -63 255 -64 88 -1 119 3 153 18 23
10 42 22 42 25 0 4 -23 14 -51 24 -148 53 -222 229 -155 372 12 28 30 56 39
64 27 21 20 28 -34 34 -67 8 -147 46 -192 91 -37 37 -77 104 -77 128 1 7 10
-5 22 -27 68 -132 236 -198 379 -149 79 27 164 24 225 -8 127 -68 131 -70 173
-58 47 12 88 57 97 106 6 35 1 55 -46 159 l-18 40 -9 -45 c-8 -36 -12 -41 -17
-25 -15 39 -29 65 -37 65 -4 0 -11 -15 -14 -32 -16 -72 -21 -78 -57 -67 -18 5
-54 14 -80 19 -65 13 -98 43 -98 91 0 55 16 88 63 132 42 38 42 39 12 32 -16
-4 -46 -17 -65 -28 l-35 -20 24 26 c32 35 90 50 167 44 82 -6 87 -10 81 -63
-6 -60 25 -56 67 8 22 34 39 26 34 -14 -14 -92 89 57 107 156 7 33 4 39 -34
74 -49 45 -53 59 -8 32 52 -32 66 -19 25 21 -44 42 -145 81 -246 95 -54 7
-126 22 -160 34 -81 26 -162 25 -265 -1 -107 -27 -244 -22 -365 14 -79 23 -83
23 -92 6z m607 -71 c22 -8 33 -19 33 -32 0 -18 1 -19 20 -1 11 10 20 14 20 9
0 -35 -86 -49 -96 -16 -3 9 -10 25 -15 35 -11 20 -6 21 38 5z m78 -546 c-6 -7
-45 19 -45 29 0 5 11 2 24 -8 13 -10 23 -19 21 -21z"/>
</g>
</svg>
